<?xml version="1.0" encoding="utf-8"?>
<!-- Generator: Adobe Illustrator 17.0.0, SVG Export Plug-In . SVG Version: 6.00 Build 0)  -->
<!DOCTYPE svg PUBLIC "-//W3C//DTD SVG 1.1//EN" "http://www.w3.org/Graphics/SVG/1.1/DTD/svg11.dtd">
<svg version="1.1" id="Layer_1" xmlns="http://www.w3.org/2000/svg" xmlns:xlink="http://www.w3.org/1999/xlink" x="0px" y="0px"
	 width="256px" height="256px" viewBox="0 0 256 256" enable-background="new 0 0 256 256" xml:space="preserve">
<rect fill="#96588A" width="256" height="256"/>
<path fill="#FFFFFF" d="M132.13,100.811l23.06,23.06l-46.119,46.118h-23.06V146.93L132.13,100.811z M106.132,162.894l5.044-5.044
	L98.15,144.823l-5.045,5.044v5.932h7.096v7.095H106.132z M135.123,111.453c0-0.812-0.407-1.219-1.22-1.219
	c-0.37,0-0.684,0.13-0.942,0.388l-30.043,30.044c-0.26,0.259-0.389,0.573-0.389,0.942c0,0.813,0.407,1.219,1.22,1.219
	c0.369,0,0.684-0.128,0.942-0.388l30.044-30.043C134.993,112.138,135.123,111.823,135.123,111.453z M169.989,106.133
	c0,1.959-0.685,3.622-2.051,4.989l-9.202,9.201l-23.06-23.059l9.202-9.147c1.33-1.404,2.993-2.106,4.989-2.106
	c1.958,0,3.64,0.702,5.044,2.106l13.027,12.971C169.305,102.529,169.989,104.211,169.989,106.133z"/>
</svg>
